<svg id="Layer_1" data-name="Layer 1" xmlns="http://www.w3.org/2000/svg" viewBox="0 0 1366 768"><defs><style>.cls-1{fill:#fffaec;}.cls-2{fill:#ff4800;}.cls-3,.cls-6,.cls-7,.cls-8{font-size:88.35px;}.cls-3,.cls-9{fill:#1d1d1b;}.cls-3{font-family:Alegreya-Regular, Alegreya;}.cls-4{letter-spacing:-0.02em;}.cls-5{font-size:73.63px;}.cls-7,.cls-8{font-family:Alegreya-BoldItalic, Alegreya;font-weight:700;}.cls-7,.cls-8,.cls-9{font-style:italic;}.cls-8{letter-spacing:-0.07em;}.cls-9{font-size:40.49px;font-family:Alegreya-Italic, Alegreya;}.cls-10{letter-spacing:-0.01em;}.cls-11{letter-spacing:-0.02em;}.cls-12{letter-spacing:-0.02em;}.cls-13{letter-spacing:-0.02em;}.cls-14{letter-spacing:-0.02em;}.cls-15{letter-spacing:-0.01em;}</style></defs><rect class="cls-1" x="1" width="1366" height="771"/><path class="cls-2" d="M637.82,356.42c-.24-3-.33-5.29,1.64-7.07.6-.55.42-1.11-.21-1.47a24.82,24.82,0,0,1-5.62-4.42A1.49,1.49,0,0,0,632,343c-1,.44-2.24.51-2.86,1-1.9,1.69-4.26,1.8-6.45,2.25a32.08,32.08,0,0,0-5.88,1.9c-3.16,1.31-6.39,2.39-9.54,3.71-3.93,1.63-7.91,3.18-11.91,4.64a52.08,52.08,0,0,1-6.82,1.9c-2,.43-4.18.46-5.87,1.89A4.05,4.05,0,0,1,581,361c-2.32.7-4.8.7-7,1.95-1.15.64-2.78.22-4.19.57-3.55.87-7.18,1.37-10.72,2.37a51.32,51.32,0,0,1-11.26,1.53c-2.06.12-2.13.29-1.94,2.2a11,11,0,0,1-.36,5.43,10.44,10.44,0,0,0-1,2.95c-.15,1.48-1.36,2.6-2.33,3.47-2.49,2.22-4.47,5.36-8.39,5.43a4.49,4.49,0,0,0-1.09.28c-.35.11-.75.09-1.07.47-.09.7.72,1.22.56,2a12.19,12.19,0,0,1-.76,2.1,8.41,8.41,0,0,0-.7,2.07c-.49,4.28-1.09,8.56-1.81,12.81a71,71,0,0,0-1.25,12.5c0,.79-.39,1.45-.42,2.21-.13,3.33.09,6.66,0,10-.08,3.68-.06,7.34.06,11a64.58,64.58,0,0,0,1.33,13.08c.25,1-.24,2.07-.14,3.09.23,2.36-.08,4.74.74,7.11.37,1.09-.08,2.55,0,3.9.24,3,0,6.08.07,9.12a1.94,1.94,0,0,1-.33,1.47,1.07,1.07,0,0,0-.26,1.05c.77,2.07.32,4.14-.11,6.16-.34,1.59-.35,3.23-1.09,4.78s-.12,2.4,1.89,2.58a3.45,3.45,0,0,0,.43.12c.9,0,1.62.88,2.59.49-.34-1.09.77-1.5,1.07-2.28.56-1.4,1.86-2.37,2.25-3.86.19-.71.85-.72,1.25-.73a14.34,14.34,0,0,0,4.67-1.28,3.42,3.42,0,0,1,2.55.13c1.83.69,2.14,2.34.64,3.59a65,65,0,0,0-5.52,5.49,8,8,0,0,0-.93,1.22,2.6,2.6,0,0,0,.1,3.25,1.91,1.91,0,0,1,.48,1c0,2.43,1,4.62,1.4,7a3.88,3.88,0,0,1-.21,1.75c-.44,1.53-.19,1.89,1.4,2.44,3.89,1.34,7.73,2.83,12,2.89,1.89,0,2.78,1.12,2.76,2.59a1.11,1.11,0,0,1-.79,1.19,11.17,11.17,0,0,1-8.12.26c-2.19-.77-4.43-1.36-6.65-2-1.24-.37-1.87-.46-2.57,1a10.24,10.24,0,0,1-3.55,3.68c-1.27.88-2.27,2.12-3.81,2.7a2.83,2.83,0,0,0-1.55,2.54,21,21,0,0,0,.19,3.36c.53,3.4.8,6.84,1.41,10.2.54,3,.87,6,1.52,9,.59,2.76,1.17,5.56,1.52,8.37a50.47,50.47,0,0,0,1.37,7.05c.3,1.11.2,2.22.42,3.34.79,4,1.2,8,2.07,11.91.78,3.58.94,7.27,2.07,10.79.36,1.12,0,2.4.51,3.53,1.09,2.62.75,5.47,1.3,8.19a44.85,44.85,0,0,1,1,5.5,58.33,58.33,0,0,0,1.44,10.3c1,4,1.1,8.07,2.37,12a57.28,57.28,0,0,1,1.81,6.41c.33,1.72.92,3.54.57,5.42-.46,2.45,1.15,4.47,1.61,6.73a.65.65,0,0,0,.9.44c1.53-1,2.87.21,4.3.28A10.45,10.45,0,0,1,562,653c1.41,1.15,3,2,4.07,3.58a12.35,12.35,0,0,1,2.14,9.36,20.57,20.57,0,0,1-3.49,8.32,22.17,22.17,0,0,1-5,5.4c-2.44,1.71-5,3.71-8,3.86-2.81.14-5.77,1.29-8.54-.32-1.7.41-2.68-1.09-4.05-1.55a9.2,9.2,0,0,0-3.2-.85c-1.37,0-3.68-2.4-3.84-3.76,0-.29,0-.67-.13-.86-2.23-2.7-1.14-5.64-.33-8.34a44.46,44.46,0,0,1,3.74-9.38,15.37,15.37,0,0,1,8.25-6.84c1.16-.44,1.64-.86,1.2-2-.75-2-.11-4-.52-6.06s-.55-4-1.08-6a56.35,56.35,0,0,1-1.39-6.12c-.49-3.32-1.24-6.6-1.72-9.93-.41-2.84-.87-5.72-1.55-8.54a17.17,17.17,0,0,1-.49-3.77c0-3.32-1-6.48-1.56-9.72-.19-1.17-.4-2.37-.54-3.54-.5-4.3-1.4-8.52-2.25-12.76-.44-2.18-.84-4.41-1.11-6.65-.44-3.71-1.48-7.35-1.92-11.06-.52-4.45-1.76-8.76-2.15-13.22a3.71,3.71,0,0,0-.06-.67c-1.51-4.56-1.68-9.36-2.51-14.05-.3-1.69-.58-3.39-1-5.06a8.75,8.75,0,0,1-.39-2.43,1.73,1.73,0,0,0-.38-1.48,2.74,2.74,0,0,1-.56-3.56,5.44,5.44,0,0,1-3.64-1.33,1.84,1.84,0,0,0-1.46-.42,7.83,7.83,0,0,1-7.36-4,31.06,31.06,0,0,1-1.78-2.86,1.3,1.3,0,0,0-2-.77c-.31.17-.78.06-1.06.25-3,1.93-6.53,1.49-9.81,2.12-.44.09-1-.07-1.33.14-1.85,1.15-3.89.72-5.86.83a20.34,20.34,0,0,0-5.89,1.39,97.39,97.39,0,0,1-12,3.06c-4.72,1.09-9.48,2.09-14.09,3.6-2.71.9-5.5,1.4-8.23,2.14-4.31,1.16-8.66,2.2-13,3.29a72.8,72.8,0,0,1-9.83,2.21,12.4,12.4,0,0,0-2.82.64c-3.38,1.22-7,1-10.43,1.5-1.89.28-2,.33-2.19,2.17-.27,2.17-1.92,3.47-3.11,5.06s-2.92,2.25-4.16,3.63a2.34,2.34,0,0,1-1,.51c-2.56.87-5.1,1.81-7.89,1.5a3.58,3.58,0,0,0-1.57.1,3.14,3.14,0,0,1-3.72-.62,1.91,1.91,0,0,0-1.88-.47c-.92.2-1.45-.06-1.44-1.12a2.71,2.71,0,0,0-1.66-2.45,8.66,8.66,0,0,1-4.1-4.61c-.37-1-1.1-2.05-.15-3.14-.36-2.56,1.17-4.75,1.41-7.19a3.37,3.37,0,0,1,1.82-2.92c1.73-.62,2.78-2.11,4.49-2.76a14.18,14.18,0,0,1,8.72-.55c.29.07.57.39.81.35,2.85-.52,5,1.42,7.37,2.26,2.78,1,5.18,2.61,6.26,5.62a1.15,1.15,0,0,0,1.28.74c1.05-.1,2.1-.17,3.13-.37,4.4-.89,8.84-1.6,13.2-2.6,3.77-.86,7.7-1.27,11.24-3,1.27-.62,2.64-.45,3.94-.7,2-.4,3.86-1.37,5.89-1.73s3.93-.82,5.88-1.27c1.08-.26,2.26-.15,3.21-.9a.86.86,0,0,1,.63-.2c2.42.65,4.33-.84,6.44-1.47a6.37,6.37,0,0,1,2-.42,3.87,3.87,0,0,0,1.13,0c3.34-1,6.87-1.21,10.17-2.45a30.42,30.42,0,0,1,9.34-2.14,48.51,48.51,0,0,0,7.72-1.51c1.31-.28,2.62-.57,4-.76a8.82,8.82,0,0,0,3.72-1.4c2.22-1.55,4.64-2.75,5.8-5.68,1-2.61,2-5.43,4.08-7.54a6.08,6.08,0,0,1,2.44-1.84,10.51,10.51,0,0,0,3.2-1.58c.19-.15,3.1-3.33,3.22-3.5s.11-.55.07-.84a7.76,7.76,0,0,1,.77-3.64,11.55,11.55,0,0,0,.65-6.14,7.49,7.49,0,0,1,0-2.41,36.24,36.24,0,0,0,.07-9.13c-.22-1.72,0-3.41-.09-5.09-.17-4.35-.43-8.68-.65-13-.13-2.6-.4-5.16-.73-7.75a25.19,25.19,0,0,1-.12-5.08c.21-2.4-.2-4.8,0-7.21s.35-4.88.4-7.32c.1-4.4.93-8.75.89-13.17a20.44,20.44,0,0,1,.61-4.91c.69-2.83.44-5.75.89-8.61.32-2-.2-4.16-.46-6.23a4.93,4.93,0,0,1,.28-3.05c.71-1.39.46-2.14-1-2.53a5.12,5.12,0,0,1-3.47-2.92c-.2-.42-.42-.8-.91-.91s-1.09.25-1.35-.48c-.31-.9-1-1.64-.88-2.73.38-2.43-.45-4.74-.79-7.1-.44-3-.5-5.87,1.25-8.6.7-1.11,1.81-1.53,2.69-2.28a15.31,15.31,0,0,1,10.56-4.08,10.07,10.07,0,0,1,4.3,1.06,9.94,9.94,0,0,0,2.29.91c2.24.48,3.59,2,4.69,3.83a10.71,10.71,0,0,0,1.3,1.53,1.23,1.23,0,0,0,1.41.36c4-1.09,8.15-1.67,12.19-2.64,2.62-.62,5.39-.87,7.8-2,1.71-.77,3.67-.43,5.19-1.6.14-.11.43-.06.64,0a11,11,0,0,0,6.83-1.64c1.39-.79,3.14-.4,4.37-1.54.07-.07.32,0,.43,0,1.42,1,2.36,0,3.37-.78.47-.35.85-.88,1.55-.8,2.3.26,4.28-.91,6.2-1.77,1.76-.79,3.6-1.38,5.36-2.16,3.78-1.69,7.9-2.77,11.43-4.86,3-1.75,6.43-1.84,9.31-3.61,2-1.23,4.43-1.4,6.46-2.71a4.77,4.77,0,0,0,2.31-3.8c.19-3.08,1.67-4.91,4.41-6.19,2-.92,4-1.61,6-2.35a20.3,20.3,0,0,0,3.7-1.92,1.91,1.91,0,0,1,1.65-.24,8.45,8.45,0,0,0,5.23-.22,5.8,5.8,0,0,1,3.92,0c2.28.63,4.27,2,6.71,2.24A2.81,2.81,0,0,1,663,328.1a21.24,21.24,0,0,0,1.49,4.57,2.38,2.38,0,0,1,.28,1.08,12.09,12.09,0,0,1-3,7.78,29.19,29.19,0,0,1-7.18,5.31,15.21,15.21,0,0,1-7,2.39,3.66,3.66,0,0,0-3.21,2,10.63,10.63,0,0,1-3.61,3.57A7.59,7.59,0,0,0,637.82,356.42ZM549.4,677.59c2.22.51,4.21-1.33,6.56-1.65a1.26,1.26,0,0,0,.84-.7c.88-2.54,3.35-4,4-6.87a8,8,0,0,0-.81-6c-2.56-4.41-6.89-5.64-11.75-5.64-1.71,0-3.16.71-4.73,1.11a9.32,9.32,0,0,0-5.47,3.19c-1.35,1.72-1.59,3.77-2.38,5.65-.36.87.86,1.12,1,1.87,0,.22.17.44.15.65-.12,1.45.64,2.58,1.29,3.75a4.07,4.07,0,0,0,3.64,2.5c.53,0,1.11-.11,1.48.34C544.77,677.74,546.88,677.81,549.4,677.59ZM530.2,382.07a9.12,9.12,0,0,0,2.22.12c3.67-.56,5.56-3.16,7.18-6.1a1.7,1.7,0,0,0,.18-.62c.16-1.75-.28-3.52.24-5.27a1.39,1.39,0,0,0-.4-1.25c-1.19-1.38-2.33-2.83-3.6-4.15-2.35-2.42-5.46-2.05-8.41-1.94a7.8,7.8,0,0,0-2.59.45c-1.48.64-2.46,1.95-3.71,2.91-.87.67-.27,1.86-.5,2.79-.1.42.13.93,0,1.33a3.87,3.87,0,0,0,.39,3.23,7.79,7.79,0,0,1,.53,1.95c.94,4.23,2.55,5.83,6.69,6.54A10.69,10.69,0,0,0,530.2,382.07ZM514.5,513.82c-.09,2,1.17,2.76,2.65,3a29,29,0,0,1,6.4,1.92c3.15,1.18,3.24,1.06,6.35-.33.27-.11.52-.36.78-.36.83,0,1.07-.67,1.53-1.15a5.66,5.66,0,0,0,1.52-5.08,13.74,13.74,0,0,1,0-1.57c-.1-2.22.19-4.43-1.69-6.33a6.71,6.71,0,0,0-3.24-2.12c-2-.45-4-.7-5.92-1a7.23,7.23,0,0,0-6.12,1.38,15.27,15.27,0,0,0-3.72,5.53c-.34.73.49,1,.92.71,1.45-.84,2.23.26,3.15.94,1.15.85.21,2.06.37,3.09.09.6-.81,1.37-1.81,1.32A9.39,9.39,0,0,0,514.5,513.82ZM639.92,339.63c-.06.36-.49.93.1,1.32,1.48,1,2.93,2.19,4.82,2.17a16.84,16.84,0,0,0,12.34-5.31c1.53-1.58,1.7-3.05.42-4.75a7.65,7.65,0,0,0-4.13-2.9c-2.84-.83-5.77-.66-8.64-1.15a2.06,2.06,0,0,0-.86.17c-3.05,1-6,2.38-9.05,3.22a2.94,2.94,0,0,0-.85.29,1.7,1.7,0,0,0-.15,2.8,11,11,0,0,0,4.77,2.35C639.76,338.14,640.08,338.53,639.92,339.63Zm-245.42,206a40.69,40.69,0,0,1,4.78-.91c.19,0,.52-.26.5-.35-.18-1,.71-1,1.22-1.34.25-.17.6-.32.55-.64-.24-1.73,1.31-2.41,2.11-3.49,1.59-2.19,1.41-3.77-.8-5.17-1.93-1.24-4.13-1.91-6.16-3a8.75,8.75,0,0,0-6.19-1,5.08,5.08,0,0,0-3.8,2.81c-.67,1.42-1.19,2.91-1.83,4.35a2,2,0,0,0,.45,2.48c1.28,1.07,2.24,2.49,4,3.13a7.2,7.2,0,0,1,3.65,2.38A1.6,1.6,0,0,0,394.5,545.58Z"/><path class="cls-2" d="M714.19,580.49a1.63,1.63,0,0,0-1.66.73,2.92,2.92,0,0,1-2,1.37c-2.73,1-5.45,2.23-8.42,2.2a15.19,15.19,0,0,1-6.55-1.93c-2.59-1.29-2.94-3.93-4.07-6.14-1.5-2.91-.85-6-1.09-9-.07-1-.26-1.49-1.22-1.77-3.08-.88-6.14-1.82-9.21-2.75a4.7,4.7,0,0,1-.84-.32c-.76-.4-1.48-.86-1.23-1.89a1.9,1.9,0,0,1,1.87-1.6c1.8-.19,3.35.75,5.07.87a8.86,8.86,0,0,1,4.89,2c.73.57,1.13.5,1.82-.27,1.26-1.41,1.43-3.35,2.7-4.76,1.46-1.62,3-2.89,5.28-2.73a2.37,2.37,0,0,0,1.08-.15,9.85,9.85,0,0,1,6.62-.32,2.61,2.61,0,0,0,2.89-.57c1.45-1.51,3.39-2.42,5-3.82a10.87,10.87,0,0,0,2.18-2.21c1-1.65,2.7-2.73,3.83-4.33,3.12-4.41,6.21-8.83,7.95-14,.36-1.07,1.18-1.82,1.6-2.9,1-2.64,1.35-5.56,2.68-8,1.5-2.76,2.85-5.6,4.34-8.36a51.9,51.9,0,0,1,7.69-10.7c1.91-2.05,3.46-4.41,5.84-6.25a30.34,30.34,0,0,1-3.39-4.33,5.35,5.35,0,0,1-1.35-3.42,7.41,7.41,0,0,0-.92-3.59,2.93,2.93,0,0,1-.18-2.79,19.25,19.25,0,0,0,1.35-4.72,5.12,5.12,0,0,1,1.33-2.58c2-2,4.17-3.64,7.17-3.69.6,0,1.28.12,1.73-.34,1.07-1.1,2.33-.94,3.56-.53s2.28,0,3.28.68c.26.19.55-.08.82-.19.78-.29,4.15.37,4.41,1,.53,1.4,1.94,1.56,2.9,2.15,2.81,1.7,3.29,2.83,3,6.22a37.55,37.55,0,0,1-.31,4.06c-.31,1.44-.59,2.89-.88,4.33-.37,1.85-1.71,3.29-2.93,4.65a9.88,9.88,0,0,0-1.74,2,4.27,4.27,0,0,1-2.64,2.22,26.27,26.27,0,0,1-5,1.79c-1.65.28-3.25.62-4.88,0-.67-.25-1.37-.33-1.82.39-1.55,2.53-4,4.22-6.17,6a21.55,21.55,0,0,0-3.88,4.59,37.25,37.25,0,0,0-5.34,10.56c-.84,2.78-2.38,5.25-3.33,8s-2,5.25-3.21,7.83a39.69,39.69,0,0,1-5.82,10,20.82,20.82,0,0,0-1.52,2.44,29.23,29.23,0,0,1-5.72,6.23,13,13,0,0,0-1.77,1.71c-1.32,1.7-1.28,2.16.47,3.15,1.3.74,1.42,2.12,2,3.23s.65,2.16,1.44,3c.51.57.26,1.28.3,1.94.11,1.77.74,2.45,2.52,2.51a62,62,0,0,0,9.14-.14c1.69-.2,3.42-.24,5.1-.56,1.26-.24,2.35.53,3.56.44,2.57-.18,5.16-.55,7.73-.49s5.08-.15,7.61,0c3.52.17,7-.21,10.56.08,5.07.41,10.17.13,15.24.66a11.85,11.85,0,0,0,3.14-.18c2.1-.33,4.16.25,6.28.06a22.7,22.7,0,0,0,7.62-1.64c.76-.35,1.89.1,2.28-.7a6.17,6.17,0,0,0,.31-3.31,28,28,0,0,0-.74-4c-.32-1.23,0-2.23,1.15-2.57s.94-1,.84-1.73c-.53-3.59,1.95-5.7,4-8a1.87,1.87,0,0,1,1.62-.63c2.07.36,4.18.27,6.27.6s4.22,1.21,6.36,1.69c1,.22,1.37.1,1.65-.81s.26-2.06,1.23-2.76c.27-.19.05-.56-.08-.83-.33-.69-.46-1.29.38-1.78.4-.23.42-.77.43-1.24.07-2-.16-4.13.68-6.09-1.07-1.79.46-3.63-.1-5.46-.24-.75.3-1.56.37-2.38.38-4.25,1-8.48,1.29-12.73.29-3.85,1.64-7.54,1.54-11.46a13.15,13.15,0,0,1,.71-2.79c.78-3.75.86-7.58,1.57-11.33.59-3.09.6-6.23,1-9.32.29-2.11.63-4.26,1-6.38.59-3,1-6.05,1.25-9.1a46,46,0,0,1,1.72-7.4c1.27-4.69,2.59-9.37,3.57-14.12a4.27,4.27,0,0,0-1.68-4.68c-1.85-1.41-3.78-2.89-4.18-5.58-.17-1.09-1.1-2.05-1.64-3.1-.79-1.53-1.32-3.07.33-4.43.53-.45.45-1,.46-1.64,0-1.92-.17-3.9,1.1-5.6.93-1.26,1.76-2.63,3.38-3.11,2-.6,3.85-1.59,5.79-2.35a3.57,3.57,0,0,1,2-.27,14.41,14.41,0,0,0,4.24.14c2.76-.14,4.92,1,7.07,2.44.94.62,1.61,1.59,2.73,2,.59.19.66.82.79,1.29a18,18,0,0,1,1,3.57,21.67,21.67,0,0,1-.26,4.61,7.77,7.77,0,0,0-.44,2.79,1.15,1.15,0,0,1-.45,1,19.27,19.27,0,0,0-2.88,4c-1.71,3-4.69,4.56-7.18,6.7-1.58-.08-3,.76-4.55.88-1.34.1-1.72.57-1.89,1.88a42.8,42.8,0,0,1-1.65,7c-1.61,5.33-3.6,10.58-3.75,16.26a24.55,24.55,0,0,1-.6,2.61c-.37,2.56-.74,5.11-1,7.68a76.47,76.47,0,0,1-2.1,11.42,30.79,30.79,0,0,0-1.3,8.78,19.4,19.4,0,0,1-.82,4.86c-.47,2.22-.18,4.45-.58,6.66-.43,2.38-.42,4.85-.87,7.23-.22,1.21-.15,2.39-.27,3.58-.43,4.15-.52,8.32-.89,12.47a28,28,0,0,1-.36,4.89c-.25,1,.13,2.1.13,3.19,0,2.4-1.16,4.43-1.6,6.67a4.65,4.65,0,0,1-1.54,3c-.7.54-.27,1.32.37,1.67a3.94,3.94,0,0,1,1.7,1.9,2.52,2.52,0,0,0,3.12,1.43,37.65,37.65,0,0,0,10.58-4c2.74-1.52,5.4-3.2,8.09-4.8a16.7,16.7,0,0,1,3.1-1.3,20.94,20.94,0,0,0,4.43-2.51,5.63,5.63,0,0,1,1.62-.78,5.54,5.54,0,0,0,3.29-1.7c.55-.67,1.4-.29,2.08-.7,2.25-1.34,4.63-2.47,6.87-3.83,2-1.24,4.37-2,6.05-3.75,3.21-.76,5.3-3.52,8.37-4.61,3.93-1.4,7-4.4,10.81-6.12,2.86-1.29,5.38-3.24,8.41-4.2.76-.24,1.63-.45,2-1.34a28,28,0,0,0-2.86-4.47,7.42,7.42,0,0,1,.1-9.13c1.28-1.74,3-3.18,3.5-5.44,1.23-.69,1.24-2.44,2.59-3a10.15,10.15,0,0,1,3.84-.95,21.49,21.49,0,0,0,4.7-.44c2-.49,4.05.57,6.12.51.5,1.67,2.85,1.21,3.32,2.89.26.9,1.14,1.29,1.77,1.6,2.68,1.34,2.44,3.72,2.69,6.12.34,3.26-1.64,5.43-3.26,7.74a25.59,25.59,0,0,1-2.42,3.41,7,7,0,0,1-4.59,2,24,24,0,0,0-4,.57c-1.35.41-2.8-.2-4.2-.5-.42-.09-.83-.41-1.32-.16a.86.86,0,0,0,.17,1c.64.86.32,1.12-.52,1.66a30.41,30.41,0,0,1-6.74,2.78,52.41,52.41,0,0,0-5.5,2.53c-2.35,1.12-4.8,2-7.07,3.39-3.72,2.19-7.59,4.12-11.35,6.24s-7.39,4.34-11.14,6.41-7.79,4.08-11.79,5.93c-2.63,1.21-5.05,2.89-7.66,4.18-2.17,1.07-4.21,2.41-6.35,3.42-2.43,1.15-4.79,2.48-7.3,3.42a19.57,19.57,0,0,1-4.82,1c-2.61.28-3.27.8-3.94,3.33a11,11,0,0,1-2.46,4.7c-1.23,1.31-2.27,2.78-3.56,4a11.7,11.7,0,0,1-3.29,2,29.76,29.76,0,0,0-4.26,2.46c-1.78,1.29-3.9.88-5.79,1.52a.48.48,0,0,1-.42-.08c-1.41-1.55-3.85-1.77-4.86-3.82-.45-.9-1-.88-2-.57a47.59,47.59,0,0,1-9.6,2c-2,.17-3.76-.39-5.63-.49-2.67-.15-5.37-.24-8-.48-3.37-.31-6.78,0-10.15-.18-5.76-.25-11.52,0-17.25.26-4.94.25-9.88.09-14.81.33-3.59.18-7.17.35-10.77.23a27.16,27.16,0,0,1-4.15-.79c-.6-.11-.86-.14-1.17.54-.5,1.06-1.24,2-1.72,3.11-.8,1.83-2.88,2.6-3.62,4.58a2.39,2.39,0,0,0,1.58.75c1.22,0,1.47.43,1.77,1.63a6.21,6.21,0,0,0,2.41,3.14c1,.73,1.68,2,3,2.29.47.12.49.72.75,1A18.88,18.88,0,0,0,731.1,592a36.48,36.48,0,0,1,7.22,5.25,4.58,4.58,0,0,0,.81.78c5.35,3.07,9,8,13.57,12,1.6,1.42,2.86,3.24,4.45,4.72,2.63,2.43,5.53,4.56,8.15,7,2.08,1.92,4.55,3.43,6.25,5.8a9.71,9.71,0,0,0,3.37,2.62,18.08,18.08,0,0,1,4.89,3.94,4.85,4.85,0,0,0,1.7,1.45c1.79.61,2.77,2.22,4.3,3.15,1.83,1.12,3.31,2.74,5.27,3.76a12.88,12.88,0,0,1,3.42,3.22c1.29,1.49,1.48,1.42,2.64,0,1.43-1.76,2.77-3.59,5.17-4.33,1.11-.35,1.82-1.69,3.22-1.85,2.42-.27,4.77-1.1,7.29-.55a14.61,14.61,0,0,0,3.35-.14,2.59,2.59,0,0,1,2.37,1c.73.94,1.82,1.55,2.49,2.59a21,21,0,0,1,3.72,9,8.62,8.62,0,0,1-.91,5,15.91,15.91,0,0,0-1.15,2.68,2.09,2.09,0,0,1-1,1.43c-.67.34-1.12.71-.86,1.56,0,.14-.17.43-.34.56-1.78,1.41-3.07,3.59-5.71,3.68a.89.89,0,0,0-.43.08c-3,1.85-6.38,1-9.59,1.37a.87.87,0,0,1-.45,0c-3.36-1.36-6.57-2.92-8.38-6.34a4.76,4.76,0,0,0-.38-.82,8.26,8.26,0,0,1-1.6-8,2.52,2.52,0,0,0-1-2.4,56.52,56.52,0,0,0-10.41-8.54,39.4,39.4,0,0,1-3.4-2.53c-4-3.08-7.27-6.9-11.11-10.14-2.55-2.17-4.9-4.63-7.44-6.84s-5.16-4.33-7.6-6.65a62.33,62.33,0,0,0-5.43-5c-1.2-.91-2.3-1.94-3.51-2.82a17.69,17.69,0,0,1-3.31-3,13.38,13.38,0,0,0-2.95-2.39A63.72,63.72,0,0,1,729,595.6c-.86-.83-1.9-1.47-2.8-2.26-3.76-3.32-7.27-6.91-11.21-10C714,582.57,714.79,581.42,714.19,580.49Zm-10.77-20.84c-3.23.28-6.35.27-8.54,3.07a2.3,2.3,0,0,0-.54,2.62,4,4,0,0,1,0,3.43,1.93,1.93,0,0,0-.13,1.53c.73,1.75.23,3.78,1.36,5.49a6.44,6.44,0,0,0,2.19,2.46c1.17.62,2.6.36,3.79,1a.52.52,0,0,0,.42-.11,2.27,2.27,0,0,1,2.52-.26,1.58,1.58,0,0,0,1.67-.43c.91-1,2.19-1.24,3.36-1.58a3.86,3.86,0,0,0,2.73-2.11,2.76,2.76,0,0,1,.89-1c1.76-1.24,2.5-3.11,3.14-5,.15-.43.3-1-.09-1.28-1-.83-1.18-2-1.49-3.17a3.83,3.83,0,0,0-1.92-2.38C709.78,560.23,706.53,559.88,703.42,559.65Zm115.26,94a12.25,12.25,0,0,0-2.31-7.34c-1.9-2.42-6.65-3.17-9.57-1.82-.33.15-.72.19-1.06.33-2.5,1.05-5.29,1.6-6.43,4.66-.3.78-.85,1.3-.23,2.14.51.69-.11,1.42-.08,2.15,0,.48-.66.48-1.1.54-.21,0-.4.05-.49.34-.2.72.47,3.69,1.12,3.94,1.31.48,1.86,1.69,2.79,2.52,1.66,1.47,3.5,2.3,5.71,1.34a2.81,2.81,0,0,1,1.3-.16c1.55,0,3-.87,4.59-.56a1.18,1.18,0,0,0,.8-.34c1.42-1.18,3.08-2.12,3.59-4.15.12-.49-.29-1.18.28-1.43A1.67,1.67,0,0,0,818.68,653.63ZM768.84,480.16c-.05-1.39.57-2.61-.86-3.26-.14-.06-.22-.41-.22-.62a3.25,3.25,0,0,0-2.23-2.87,14.88,14.88,0,0,0-4.17-1.62c-.87-.12-1.63-.67-2.61-.5-2,.35-4,.47-5.72,1.5-1.45.88-3.16,1.6-3.77,3.57-.69,2.24,0,4.34.25,6.49,0,.45.5.73.87,1a1.67,1.67,0,0,1,.75.8c1,2.92,3.4,4.22,6.13,5.28,4.59,1.79,8.14-1.16,10-4.11C768.4,484.11,769.27,482,768.84,480.16Zm68-56.45a14.34,14.34,0,0,0,.32,3.84c1.23,3.62,4.19,4.95,7.36,6.16a4.83,4.83,0,0,0,1.5.19,7.55,7.55,0,0,0,5-1.76c1.5-1.11,3.27-2.32,3.45-4.63,0-.53.84-1,1.24-1.53s-1-.8-.37-1.7c1.19-1.87.18-3.8-.7-5.32a7.29,7.29,0,0,0-4.09-3.12c-4-1.39-7.64-.72-11.23,1a3.85,3.85,0,0,0-1.93,2.36A18.3,18.3,0,0,0,836.87,423.71ZM812.25,549.65c-2.5,0-3.09.19-4,1.7-.66,1.06-1.42,2.15-.39,3.53a3.83,3.83,0,0,1,.34,2c0,.69-.24,1-1.07,1-1.32,0-1.72.54-1.13,1.53a26.76,26.76,0,0,1,1.48,3.93c.87,2.15,1.76,4,4.65,4.45a5.43,5.43,0,0,0,4.55-1,5,5,0,0,1,2.34-1.23,1.37,1.37,0,0,0,1-.46c1.28-1.48,2.67-2.86,3.86-4.4a2.42,2.42,0,0,0,.27-3,2,2,0,0,1-.47-1.47c.26-1.45-.71-2.19-1.59-3C819.06,550.57,815.31,550.14,812.25,549.65Zm115.4-46.35c0-1.56.28-2.92-.65-4-3.44-3.85-7.58-5.83-12.84-4.57a3.69,3.69,0,0,0-2,1.34c-1.46,1.7-2.45,3.71-3.8,5.49a4.18,4.18,0,0,0,0,5.34,3.71,3.71,0,0,1,.67,1.12c.53,1.55,1.12,1.63,2.16.35.33-.41.83-1.11,1.19-.7,1,1.1,2.6.47,3.5,1.66a2.15,2.15,0,0,0,2.48.55c1.34-.41,2.95-.11,4-1.43,1.69.38,2.48-1,3.61-1.79C927.26,505.78,928.08,504.71,927.65,503.3Zm-14.94,9c-.9-.39-1.5-.61-2.1-.07-.06.06,0,.32.06.4C911.31,513.29,911.85,512.79,912.71,512.32Z"/><path class="cls-2" d="M548.09,479.47a7,7,0,0,1,2.16-4,15.36,15.36,0,0,1,5-3.61,8.35,8.35,0,0,0,2.47-1.89c2-1.77,4.1-3.5,6.16-5.25a1.88,1.88,0,0,1,1.41-.59c.77.07,1.62.72,1.36,1.17-.64,1.11.07,2.61-1.34,3.53-1.15.75-1.74,2.21-2.94,3.05-2.08,1.44-3.78,3.37-6,4.55a8.44,8.44,0,0,0-1.88,1.59c-1.38,1.36-3.2,2.1-4.66,3.36-.53.46-.94.27-1.25-.32A2.24,2.24,0,0,1,548.09,479.47Z"/><path class="cls-2" d="M787.15,454.63l1.54.37c.73.19,1.49.32,1.45,1.38s-.08,1.84-1.29,2a2.07,2.07,0,0,0-1.67,1.22A3.24,3.24,0,0,1,785,461a11.72,11.72,0,0,0-5.32,2.26,2.56,2.56,0,0,1-1.36.74,5.89,5.89,0,0,0-3.43,1.5c-1,.73-1.8.48-1.92-.65-.09-.91-.94-1.57-.66-2.54.45-1.59,1.11-2.85,3-3.18a17.81,17.81,0,0,0,5-1.84,8.47,8.47,0,0,1,1.63-.73,8.57,8.57,0,0,0,3.63-1.52C786,454.76,786.64,454.77,787.15,454.63Z"/><path class="cls-2" d="M600.67,534.76a1.14,1.14,0,0,1,1.14-.83c3.42.17,6.9-.87,10.21,1.2,1.18.74,2.53,2,4.37,1.52.75-.21,1.19.82,2,.93,1.6.25,3,1.47,4.74,1.12a1.25,1.25,0,0,1,1.22.83c.22.47-.2.81-.51,1.14a3.6,3.6,0,0,1-3.82,1.11,56.27,56.27,0,0,1-9.24-2.5,72.37,72.37,0,0,0-7.44-2.26C601.85,536.58,601.4,535.6,600.67,534.76Z"/><path class="cls-2" d="M603.29,408.25a1.12,1.12,0,0,1,.28-1c1.33-1.18,2.14-2.93,3.93-3.63a3,3,0,0,0,1.09-.78c1.48-1.72,2.76-3.56,4.83-4.79,1.54-.91,2.54-1.5,3.32-.74a3.55,3.55,0,0,1-.09,3.82,24.86,24.86,0,0,0-2.88,4.4,1.85,1.85,0,0,1-1.12,1,8.89,8.89,0,0,0-3.74,2.28c-.67.59-1.55.93-2.25,1.48a2,2,0,0,1-2.5.18C603.28,409.94,603.36,409.06,603.29,408.25Z"/><path class="cls-2" d="M623.09,371.33a1.73,1.73,0,0,1,.52-1.8c2.17-1.87,3.83-4.46,6.91-5.1a4.86,4.86,0,0,0,2-1,10.69,10.69,0,0,1,1.34-.79c.77-.43,1.64-.8,2.27-.08a2.28,2.28,0,0,1,.28,2.73,13.27,13.27,0,0,1-2.2,2.78c-2,1.81-4.35,3.11-6.42,4.79-.84.69-1.45,1.57-2.75,1.69-1.07.1-1.46-.15-1.7-1.13A10.67,10.67,0,0,1,623.09,371.33Z"/><path class="cls-2" d="M591.14,431.92a1.58,1.58,0,0,1-.79,1.63A15.93,15.93,0,0,0,586,438a12.52,12.52,0,0,1-3,2.59,28.82,28.82,0,0,1-4,2.66c-1.41.75-1.61.75-2.1-.81a2.36,2.36,0,0,1,.57-2.62,25.58,25.58,0,0,1,4.08-4.11,9.6,9.6,0,0,0,.89-1c.86-.86,1.14-2.41,2.78-2.33.38-1.61,2-1.59,3.06-2.18C589.84,429.4,591.09,430.2,591.14,431.92Z"/><path class="cls-2" d="M644.35,546.23c3,1,6.26,1,9.18,2.59,1.89,1,3.66,2.29,5.63,3.18a4.79,4.79,0,0,1,1.31.86c.66.58.48,1.6-.34,1.67-1.29.11-2.72,1.08-3.89-.34-2.53-.36-4.74-1.67-7.16-2.38a6.12,6.12,0,0,1-1.26-.46,33.09,33.09,0,0,0-6.19-3c-.34-.11-.78-.12-.79-.63s.28-.66.66-.77A6.93,6.93,0,0,1,644.35,546.23Z"/><path class="cls-2" d="M795.65,453.27c-.18-1-1.24-1.43-1.08-2.43a5.28,5.28,0,0,1,2.22-3.48c1.54-1.07,2.8-2.47,4.25-3.55a7.4,7.4,0,0,1,5.67-1.23,1.09,1.09,0,0,1,.82.7,2.93,2.93,0,0,1-1.49,4C802.36,448.69,799.48,451.46,795.65,453.27Z"/><path class="cls-2" d="M814,436.06c-.38-1.26.36-2.25,1.16-3.29,2.06-2.68,5-4.2,7.73-6a1.66,1.66,0,0,1,2.09.24,1.75,1.75,0,0,1,.43,2,8.63,8.63,0,0,1-1.7,2.14c-2.12,2.63-5.28,3.89-7.58,6.22-.31.32-.57.72-1.08.72-.68,0-1.48.1-1.06-1.05A3.82,3.82,0,0,0,814,436.06Z"/><path class="cls-2" d="M580.63,529.7c-1.25.72-2.19-.62-3.42-.81a12,12,0,0,1-5.47-1.69,12.85,12.85,0,0,1-2.22-1.88c-.43-.5-.25-.85.21-1.06a4.58,4.58,0,0,1,2.08-.73c3,.35,6,.83,8.63,2.6.3.2.52.59.91.59,1.36,0,1.69,1,1.54,2C582.71,529.9,581.69,529.85,580.63,529.7Z"/><path class="cls-2" d="M427.36,634.14c.35,0,.66,0,.68.36s-.25.52-.55.55-.78-.09-.75-.54S427.16,634.24,427.36,634.14Z"/><text class="cls-3" transform="translate(374.99 124.09) scale(0.91 1)">The <tspan class="cls-4" x="144.54" y="0">M</tspan><tspan x="217.61" y="0">yth </tspan><tspan class="cls-5" x="350.84" y="0">of </tspan><tspan class="cls-5"><tspan x="-0.07" y="77.31" xml:space="preserve">         the</tspan><tspan class="cls-6" x="227.72" y="77.31"> </tspan><tspan class="cls-7" x="245.22" y="77.31">Lone </tspan><tspan class="cls-8" x="422.98" y="77.31">W</tspan><tspan class="cls-7" x="498.96" y="77.31">olf</tspan></tspan></text><text class="cls-9" transform="translate(423.49 263.34) scale(0.91 1)">The <tspan class="cls-10" x="57.87" y="0">c</tspan><tspan x="71.19" y="0">o</tspan><tspan class="cls-11" x="87.63" y="0">py</tspan><tspan class="cls-10" x="122.9" y="0">c</tspan><tspan x="136.22" y="0">at ef</tspan><tspan class="cls-12" x="198.22" y="0">f</tspan><tspan x="207.89" y="0">ect in </tspan><tspan class="cls-13" x="292.36" y="0">f</tspan><tspan x="302.04" y="0">a</tspan><tspan class="cls-14" x="320.71" y="0">r</tspan><tspan x="333.91" y="0">-right </tspan><tspan class="cls-15" x="427.41" y="0">t</tspan><tspan x="438.54" y="0">er</tspan><tspan class="cls-15" x="467.09" y="0">r</tspan><tspan x="480.7" y="0">or</tspan></text></svg>